
<svg width="12px" height="14px" viewBox="0 0 12 14" version="1.1" xmlns="http://www.w3.org/2000/svg" xmlns:xlink="http://www.w3.org/1999/xlink">
    <!-- Generator: Sketch 45.2 (43514) - http://www.bohemiancoding.com/sketch -->
    <desc>Created with Sketch.</desc>
    <defs></defs>
    <g id="Page-1" stroke="none" stroke-width="1" fill="none" fill-rule="evenodd" opacity="0.8">
        <g id="Brexit-talks" transform="translate(-231.000000, -888.000000)" fill="#FFFFFF">
            <g id="Page-1-Copy-3" transform="translate(231.000000, 888.000000)">
                <path d="M6.1816,5.5693 C7.3466,5.5693 8.7386,4.2613 8.7386,2.6473 C8.7386,1.0333 7.7936,0.0903 6.1816,0.0903 C4.5676,0.0903 3.6236,1.0333 3.6236,2.6473 C3.6236,4.2613 5.1306,5.5693 6.1816,5.5693" id="Fill-4"></path>
                <path d="M10.6855,8.1474 L10.0405,7.5024 C8.7825,7.0864 7.5745,6.8584 6.1735,6.8584 C4.7655,6.8584 3.5725,7.0814 2.3055,7.5024 L1.6625,8.1474 L0.3725,12.9814 L1.0165,13.6264 L11.3315,13.6264 L11.9745,12.9814 L10.6855,8.1474 Z" id="Fill-6"></path>
            </g>
        </g>
    </g>
</svg>